<svg xmlns="http://www.w3.org/2000/svg" width="31.064" height="29.779" viewBox="0 0 31.064 29.779">
  <path id="facebook" d="M51.533,564H40.522c-.022-.087-.1-.064-.166-.074a4.948,4.948,0,0,1-1.8-.689,5.316,5.316,0,0,1-2.333-2.883,2.815,2.815,0,0,0-.22-.731V538.6c.091-.031.055-.105.066-.159a4.737,4.737,0,0,1,.718-1.759,5.177,5.177,0,0,1,4.433-2.446c6.865-.021,13.741-.011,20.606-.011a5.109,5.109,0,0,1,1.647.275,5.285,5.285,0,0,1,3.592,4.893c-.032,6.442-.011,12.886,0,19.329a4.962,4.962,0,0,1-.807,2.84,5.431,5.431,0,0,1-2.963,2.215,7.567,7.567,0,0,0-.84.222H56.4a1.1,1.1,0,0,1-.022-.19q0-5.417-.011-10.842c0-.19.066-.222.243-.222,1.558.01,3.107,0,4.665.01.21,0,.287-.031.273-.254-.01-1.494-.01-2.978,0-4.472,0-.191-.044-.254-.254-.254-1.161.01-2.31,0-3.471,0H56.562c-.091,0-.187.031-.187-.116.011-.711-.045-1.431.032-2.141a1.144,1.144,0,0,1,1.212-1.062l.038,0c1.216.042,2.432.01,3.645.01.177,0,.254-.021.254-.233q-.017-2.258,0-4.515c0-.169-.032-.233-.232-.223-1.293.011-2.6,0-3.891.011a5.25,5.25,0,0,0-3.018.921,6.451,6.451,0,0,0-2.786,4.377,16.26,16.26,0,0,0-.091,2.755c0,.191-.067.234-.244.234-1.1-.011-2.211,0-3.327-.011-.177,0-.243.043-.243.223q.017,2.258,0,4.515c0,.19.055.244.254.233,1.084-.01,2.167,0,3.25-.01.232,0,.31.031.31.286q-.01,5.485,0,10.97" transform="translate(-36.001 -534.221)" fill="#fff"/>
</svg>
