<svg xmlns="http://www.w3.org/2000/svg" width="31.066" height="29.779" viewBox="0 0 31.066 29.779">
  <g id="instagram" transform="translate(-74 -2877.22)">
    <path id="Caminho_24" data-name="Caminho 24" d="M51.542,507.258a3.882,3.882,0,1,0,4.046,3.879,3.964,3.964,0,0,0-4.046-3.879" transform="translate(38 2381)" fill="#fff"/>
    <path id="Caminho_26" data-name="Caminho 26" d="M58.02,506.326a1.47,1.47,0,0,1-1.47-1.421,1.465,1.465,0,1,1,1.469,1.421ZM51.5,517.114a5.988,5.988,0,1,1,6.288-5.937v.013a6.142,6.142,0,0,1-6.288,5.924m9.85-11.583a4.109,4.109,0,0,0-3.438-3.7,17.083,17.083,0,0,0-3.281-.233c-2.045-.021-4.1-.021-6.147,0a24.08,24.08,0,0,0-2.764.138,4.58,4.58,0,0,0-2.9,1.356,4.645,4.645,0,0,0-1.127,2.9c-.133,1.643-.1,3.286-.11,4.918v.611a51.082,51.082,0,0,0,.165,5.2,4.1,4.1,0,0,0,3.416,3.689,15.7,15.7,0,0,0,3.305.233c2.045.032,4.1.021,6.147,0a18.689,18.689,0,0,0,3.073-.19,4.041,4.041,0,0,0,3.5-3.063,11.822,11.822,0,0,0,.273-2.787c.033-1.611.033-3.211.033-4.821a39.311,39.311,0,0,0-.153-4.259" transform="translate(38 2381)" fill="#fff"/>
    <path id="Caminho_25" data-name="Caminho 25" d="M63.625,516.036a7.5,7.5,0,0,1-1.05,3.687,6.269,6.269,0,0,1-4.256,2.787,18.11,18.11,0,0,1-3.394.254c-2.409.011-4.808.011-7.218-.01a12.112,12.112,0,0,1-3.8-.467,6.057,6.057,0,0,1-4.234-4.663,15.215,15.215,0,0,1-.265-3.243c-.011-2.311-.011-4.61.011-6.92a10.71,10.71,0,0,1,.487-3.645,6.173,6.173,0,0,1,4.863-4.06,16.967,16.967,0,0,1,3.361-.254c2.409-.011,4.83-.021,7.241.011a12.111,12.111,0,0,1,3.8.466,6.076,6.076,0,0,1,4.234,4.663,15.689,15.689,0,0,1,.265,3.222c.022,1.092,0,2.173,0,3.264.021,1.641.044,3.273-.044,4.906Zm3.438-14.646a5.283,5.283,0,0,0-3.592-4.892,5.118,5.118,0,0,0-1.647-.275c-6.865,0-13.741-.011-20.606.01a5.2,5.2,0,0,0-4.433,2.446,4.824,4.824,0,0,0-.718,1.76c-.011.053.011.138-.067.159v21.024a4.286,4.286,0,0,1,.222.732,5.307,5.307,0,0,0,2.333,2.883,5.442,5.442,0,0,0,1.8.688c.056.011.144-.011.166.074H62.454c.265-.116.564-.127.84-.223a5.379,5.379,0,0,0,2.963-2.214,4.962,4.962,0,0,0,.807-2.84q-.033-9.669,0-19.332" transform="translate(38 2381)" fill="#fff"/>
  </g>
</svg>
