<svg xmlns="http://www.w3.org/2000/svg" xmlns:xlink="http://www.w3.org/1999/xlink" width="125.979" height="125.671" viewBox="0 0 125.979 125.671">
  <defs>
    <clipPath id="clip-path">
      <path id="Caminho_1" data-name="Caminho 1" d="M20.89,50.174V71.12h-.31v69.817h91.072a34.908,34.908,0,0,0,0-69.817H90.707V50.174a34.908,34.908,0,1,0-69.817,0" transform="translate(-20.58 -15.265)" fill="#fff"/>
    </clipPath>
  </defs>
  <g id="logo_FL_branco" transform="translate(-20.58 -15.265)">
    <g id="Grupo_2" data-name="Grupo 2" transform="translate(20.58 15.265)">
      <g id="Grupo_1" data-name="Grupo 1" clip-path="url(#clip-path)">
        <rect id="Retângulo_3" data-name="Retângulo 3" width="125.981" height="125.671" transform="translate(-0.001 0)" fill="#fff"/>
      </g>
    </g>
    <g id="Grupo_3" data-name="Grupo 3" transform="translate(35.744 99.822)">
      <path id="Caminho_2" data-name="Caminho 2" d="M28.552,59.913h5.6v20.3h9.1v5.075h-14.7Z" transform="translate(-28.552 -59.54)" fill="#da3f30"/>
      <path id="Caminho_3" data-name="Caminho 3" d="M51.853,85.838a13.061,13.061,0,1,1,0-26.121,13.061,13.061,0,0,1,0,26.121Zm0-20.561a7.481,7.481,0,0,0,0,14.963,7.481,7.481,0,0,0,0-14.963Z" transform="translate(-19.313 -59.717)" fill="#da3f30"/>
      <path id="Caminho_4" data-name="Caminho 4" d="M69.442,85.288H64.628L54.367,59.913H60.41l5.225,14.255,1.381,3.993L68.4,74.168l5.26-14.255H79.7Z" transform="translate(-5.262 -59.54)" fill="#da3f30"/>
      <path id="Caminho_5" data-name="Caminho 5" d="M85.781,85.288h-14.7V59.913h14.7v5.075h-9.1v5.039h8.731V75.1H76.677v5.111h9.1Z" transform="translate(9.816 -59.54)" fill="#da3f30"/>
    </g>
    <g id="Grupo_4" data-name="Grupo 4" transform="translate(35.387 29.724)">
      <path id="Caminho_6" data-name="Caminho 6" d="M38.989,28.594H28.565V22.866H54.53V37.912H49.337V28.594H44.182V37.53H38.989Z" transform="translate(-28.183 -22.866)" fill="#da3f30"/>
      <path id="Caminho_7" data-name="Caminho 7" d="M28.364,45.846A13.633,13.633,0,0,1,41.729,32.481,13.631,13.631,0,0,1,55.092,45.846,13.629,13.629,0,0,1,41.729,59.209,13.631,13.631,0,0,1,28.364,45.846Zm21.04,0a7.921,7.921,0,0,0-7.637-7.637,7.955,7.955,0,0,0-7.675,7.637,7.954,7.954,0,0,0,7.675,7.635A7.92,7.92,0,0,0,49.4,45.846Z" transform="translate(-28.364 -14.191)" fill="#da3f30"/>
      <path id="Caminho_8" data-name="Caminho 8" d="M28.565,54.166V48.438H54.53v9.737a8.051,8.051,0,0,1-8.324,7.942c-4.392,0-7.293-2.635-8.1-5.918l-9.545,7.445V60.39L37.844,54.2v-.038Zm21.459,0H42.348V57.22a3.582,3.582,0,0,0,3.858,3.435,3.617,3.617,0,0,0,3.818-3.435Z" transform="translate(-28.183 0.205)" fill="#da3f30"/>
    </g>
  </g>
</svg>
