<svg xmlns="http://www.w3.org/2000/svg" width="31.067" height="29.782" viewBox="0 0 31.067 29.782">
  <path id="telefone" d="M61.064,478.936a4.748,4.748,0,0,1-.575,1.123,3.932,3.932,0,0,1-.266.34c-.021.02-.044.053-.066.074a.3.3,0,0,0-.056.063l-.077.075-.056.053a1.493,1.493,0,0,1-.144.116c-.011.011-.032.021-.044.032l-.1.063-.011.011c-.066.043-.144.087-.209.127-.011,0-.011.011-.022.011a.592.592,0,0,1-.121.053,3.2,3.2,0,0,1-1.924.149,14.623,14.623,0,0,1-5-2.115l-.6-.382-.133-.1a21.945,21.945,0,0,1-5.012-4.684c-.091-.117-.177-.223-.265-.34l-.033-.031c-.033-.043-.077-.1-.11-.138s-.078-.1-.11-.138c-.078-.1-.155-.18-.233-.275-.033,0-.077.01-.11.01a.451.451,0,0,1,.11-.01c-.022-.064-.044-.116-.066-.18s-.056-.116-.078-.17c-.188-.36-.455-.677-.652-1.028a10.487,10.487,0,0,1-1.5-4.112,2.442,2.442,0,0,1,.243-1.377c.033-.054.056-.117.092-.17a1.218,1.218,0,0,1,.11-.159,1.623,1.623,0,0,1,.11-.138l.011-.011a1.318,1.318,0,0,1,.121-.127l.022-.021.121-.116c.011-.011.022-.011.022-.021a1.228,1.228,0,0,0,.121-.106l.033-.031.133-.1a.18.18,0,0,1,.045-.031c.055-.043.121-.074.188-.116l.3-.159c1.327-.7,1.681-.53,2.355.636.078.138.166.275.255.4s.155.243.243.371c.011.01.011.021.022.031a4.247,4.247,0,0,0,.254.36c.273.392.564.773.851,1.155.033.053.067.1.1.149.011.01.011.021.022.031.033.053.056.106.078.148l.066.16a1.414,1.414,0,0,1-.155,1.2c-.155.275-.3.552-.475.816a1.576,1.576,0,0,0,.209,2.194c.045.053.1.1.144.148.078.088.166.17.244.254.11.128.21.255.32.372.045.053.1.106.144.159a17.958,17.958,0,0,0,1.847,1.78c.265.223.541.446.82.647.177.138.353.262.541.392.785.541,1.5.148,2.167-.275a1.776,1.776,0,0,1,1.968-.308c.041.019.082.041.121.064a.211.211,0,0,1,.055.031c.033.021.067.032.1.054a.31.31,0,0,0,.055.031c.056.032.1.064.155.1.091.054.177.117.266.17.851.541,1.713,1.06,2.564,1.59a.871.871,0,0,1,.483,1.161c-.008.019-.018.038-.027.056Zm6.8-15.55a5.283,5.283,0,0,0-3.592-4.892,5.118,5.118,0,0,0-1.647-.275c-6.865,0-13.741-.011-20.607.01a5.352,5.352,0,0,0-5.151,4.207c-.011.054.011.138-.067.159V483.62a4.276,4.276,0,0,1,.222.731,5.3,5.3,0,0,0,2.333,2.883,5.423,5.423,0,0,0,1.8.689c.056.011.144-.01.166.075H63.253c.265-.116.564-.128.84-.223a5.384,5.384,0,0,0,2.963-2.214,4.963,4.963,0,0,0,.807-2.841q-.035-9.67,0-19.334" transform="translate(-36.798 -458.216)" fill="#fff"/>
</svg>
